<svg width="24" height="25" viewBox="0 0 24 25" fill="none" xmlns="http://www.w3.org/2000/svg">
<path fill-rule="evenodd" clip-rule="evenodd" d="M4.8 3.4292H19.2C21.851 3.4292 24 5.65498 24 8.40063V18.3435C24 21.0891 21.851 23.3149 19.2 23.3149H4.8C2.14903 23.3149 0 21.0891 0 18.3435V8.40063C0 5.65498 2.14903 3.4292 4.8 3.4292ZM5.52 6.59848C5.22177 6.18664 4.65764 6.10317 4.26 6.41206C3.86235 6.72094 3.78177 7.30521 4.08 7.71706L7.44 12.3571C9.72 15.5056 14.28 15.5056 16.56 12.3571L19.92 7.71706C20.2182 7.30521 20.1376 6.72094 19.74 6.41206C19.3424 6.10317 18.7782 6.18664 18.48 6.59848L15.12 11.2385C13.56 13.3928 10.44 13.3928 8.88 11.2385L5.52 6.59848Z" fill="#7B7B7B"/>
</svg>
