<svg width="24" height="25" viewBox="0 0 24 25" fill="none" xmlns="http://www.w3.org/2000/svg">
<g clip-path="url(#clip0_162_2366)">
<g clip-path="url(#clip1_162_2366)">
<path fill-rule="evenodd" clip-rule="evenodd" d="M5.95833 8.49363V6.18038C5.95833 3.14614 8.43942 0.686401 11.5 0.686401C14.5606 0.686401 17.0417 3.14614 17.0417 6.18038V8.49363H17.3333C19.9107 8.49363 22 10.565 22 13.1201V20.0599C22 22.615 19.9107 24.6864 17.3333 24.6864H5.66667C3.08934 24.6864 1 22.615 1 20.0599V13.1201C1 10.565 3.08934 8.49363 5.66667 8.49363H5.95833ZM7.70833 6.18038C7.70833 4.10432 9.40592 2.42134 11.5 2.42134C13.5941 2.42134 15.2917 4.10432 15.2917 6.18038V8.49363H7.70833V6.18038ZM12.6667 15.4334C12.6667 15.7267 12.5565 15.9946 12.375 16.1984V20.0599C12.375 20.539 11.9832 20.9274 11.5 20.9274C11.0168 20.9274 10.625 20.539 10.625 20.0599V16.1984C10.4435 15.9946 10.3333 15.7267 10.3333 15.4334C10.3333 14.7946 10.8557 14.2768 11.5 14.2768C12.1443 14.2768 12.6667 14.7946 12.6667 15.4334Z" fill="#7B7B7B"/>
</g>
</g>
<defs>
<clipPath id="clip0_162_2366">
<rect width="24" height="24" fill="white" transform="translate(0 0.686401)"/>
</clipPath>
<clipPath id="clip1_162_2366">
<rect width="24" height="24" fill="white" transform="translate(0 0.686401)"/>
</clipPath>
</defs>
</svg>
